<svg width="219" height="196" viewBox="0 0 219 196" fill="none" xmlns="http://www.w3.org/2000/svg">
<path d="M62.5 29.9999C58.9768 30.0895 55.2808 29.3734 52.0284 31.0549C47.4866 33.4029 45.9407 37.5893 45.997 42.5C46.0161 44.1664 46 45.8333 46 47.4999" stroke="black" stroke-width="6" stroke-linecap="round" stroke-linejoin="round"/>
<path d="M172 47.5C171.974 43.2765 172.722 38.8099 170.428 35.0438C166.98 29.3824 161.104 29.8547 155.5 30" stroke="black" stroke-width="6" stroke-linecap="round" stroke-linejoin="round"/>
<path d="M46.25 149C45.118 158.423 48.104 164.635 59.0002 164.524C60.1651 164.512 61.3333 164.833 62.5 165" stroke="black" stroke-width="6" stroke-linecap="round" stroke-linejoin="round"/>
<path d="M171.75 149C172.755 157.275 170.834 161.673 164.989 163.972C161.931 165.175 158.662 164.241 155.5 164.5" stroke="black" stroke-width="6" stroke-linecap="round" stroke-linejoin="round"/>
<path d="M106.5 91.5C105.5 97.8333 104.746 104.218 103.438 110.487C101.781 118.432 103.518 120.686 111.5 119.995C112.003 119.951 112.5 119.833 113 119.75" stroke="black" stroke-width="6" stroke-linecap="round" stroke-linejoin="round"/>
<path d="M120.5 133.5C120.872 135.674 119.354 135.236 118.015 135.561C111.815 137.067 105.68 136.798 99.4894 135.552C98.1424 135.281 97.4145 134.919 97.4999 133.5" stroke="black" stroke-width="6" stroke-linecap="round" stroke-linejoin="round"/>
<path d="M143.5 83.5C141.413 83.6898 139.487 83.142 137.483 82.5574C131.508 80.8138 126.005 83.0818 120.52 85.056C120.361 85.1133 120.5 86 120.5 86.5" stroke="black" stroke-width="6" stroke-linecap="round" stroke-linejoin="round"/>
<path d="M97.75 86.0001C91.4573 81.4626 84.66 81.0122 77.5 83.5001" stroke="black" stroke-width="6" stroke-linecap="round" stroke-linejoin="round"/>
<path d="M93.5 91.5001C92.9167 91.5001 92.0361 91.2499 91.7942 91.5373C87.6493 96.4626 83.5833 92.8317 79.5 91.5001" stroke="black" stroke-width="6" stroke-linecap="round" stroke-linejoin="round"/>
<path d="M138.5 91.5001C137.917 91.5001 137.036 91.2499 136.794 91.5373C132.649 96.4626 128.583 92.8317 124.5 91.5001" stroke="black" stroke-width="6" stroke-linecap="round" stroke-linejoin="round"/>
<path d="M103.5 33C82.6068 35.5781 71.7787 49.7245 67.5311 70.0065C65.0946 81.6406 65.4728 93.055 69.3495 104.551C72.751 114.637 74.0154 125.388 77.5304 135.489C81.2235 146.103 88.4614 154.263 98.122 159.264C107.193 163.961 117.712 162.96 128.587 153.095C137.811 144.727 141.845 133.955 144.376 122.473C146.303 113.728 149.582 105.284 150.866 96.4805C153.908 75.6254 151.281 56.1198 134.484 41.0183C128.128 35.3049 120.286 33.4251 111.999 33.0203C109.339 32.8904 106.667 33 104 33" stroke="black" stroke-width="6" stroke-linecap="round" stroke-linejoin="round"/>
</svg>
