<svg width="289" height="312" viewBox="0 0 289 312" fill="none" xmlns="http://www.w3.org/2000/svg">
<path d="M26.1778 171.257C31.3812 169.303 34.8924 165.593 38.2011 162.017C40.6495 159.371 42.7797 157.941 46.4346 158.156C52.385 158.507 57.2159 156.062 60.7414 151.168C61.4091 150.241 62.0318 148.877 62.9469 148.595C73.9213 145.206 80.9473 136.047 90.1705 130.12C92.5331 128.602 94.0761 129.443 95.6046 131.217C100.464 136.859 107.746 137.275 114.088 139.679C116.011 140.408 117.823 139.305 119.312 137.97C123.149 134.527 127.487 133.132 132.771 132.65C139.102 132.071 144.467 128.235 149.174 123.866C150.578 122.564 152.051 121.311 153.291 119.863C156.236 116.425 158.893 116.592 161.777 120.004C163.749 122.336 166.492 124.102 168.124 126.618C172.735 133.722 182.004 133.498 187.348 139.303C187.464 139.429 187.731 139.546 187.873 139.5C198.967 135.925 204.493 149.732 215.035 148.287C216.065 148.146 217.658 150.347 218.605 151.726C220.774 154.882 222.755 157.882 227.202 154.881C228.209 154.202 229.643 154.683 230.21 155.793C232.777 160.824 236.813 159.467 240.643 158.138C245.388 156.492 248.467 157.313 250.649 162.349C255.831 174.311 266.669 177.327 278.254 178.787C281.61 179.21 285.094 178.952 288.083 181.837C235.093 181.837 182.104 181.837 129.114 181.837C128.909 181.245 128.704 180.654 128.499 180.062C143.544 178.178 153.313 165.236 169.356 162.905C163.498 162.216 159.797 163.124 153.01 166.892C143.807 172 134.758 177.358 124.463 180.172C120.562 181.237 116.641 182.421 112.663 182.468C95.0467 182.678 77.2353 184.164 59.877 182.049C48.7958 180.698 38.7271 184.819 27.1636 182.369C28.8851 192.896 33.1593 200.528 39.3873 207.188C47.465 215.826 57.9899 220.456 68.6395 224.867C80.4662 229.765 92.6827 233.756 103.329 241.257C114.673 249.25 121.621 260.122 125.293 273.235C127.99 282.864 128.761 292.798 129.098 302.753C129.2 305.783 129.008 308.836 127.576 312C123.941 310.085 124.425 306.462 123.885 303.598C120.581 286.066 110.561 272.947 96.9977 262.146C87.0197 254.2 75.4945 252.436 63.321 254.801C53.4571 256.718 43.5723 257.377 33.6193 256.483C24.813 255.692 21.4827 251.417 22.305 242.658C22.5193 240.375 22.7366 238.042 23.3867 235.861C25.2043 229.763 25.4095 224.002 21.6335 218.411C19.6218 215.433 19.4305 211.978 21.4311 208.449C17.5311 206.33 14.8056 204.175 17.9772 199.422C19.5924 197.001 16.4714 196.028 14.8288 194.91C6.92014 189.527 6.39431 185.658 13.444 178.198C5.81133 178.181 1.87215 174.278 0.382323 167.566C-0.639432 162.963 0.28836 159.197 4.36328 156.542C6.60542 155.08 8.80793 153.46 11.2438 152.412C19.612 148.814 23.1271 142.03 24.1253 133.502C24.2788 132.189 24.5709 130.594 24.0156 129.543C16.8363 115.967 21.1545 102.293 25.0645 89.4339C40.2586 39.4616 74.149 9.07216 125.7 1.33835C193.205 -8.78902 257.186 39.6123 264.229 110.851C265.085 119.513 264.815 128.041 263.943 136.621C263.848 137.553 263.782 138.541 262.815 139.1C261.835 139.537 261.193 138.825 261.09 138.163C260.075 131.676 257.69 126.82 249.847 127.203C247.602 127.312 247.546 125.182 247.451 123.365C246.572 106.548 240.292 100.588 223.172 100.206C222.636 100.194 222.106 99.8926 221.512 99.7069C221.367 99.1241 221.044 98.5568 221.129 98.0596C223.527 84.0873 214.666 73.5769 200.563 74.059C197.812 74.1531 196.546 73.3701 195.152 71.1048C189.684 62.2192 179.163 62.318 173.923 71.4209C171.825 75.0659 170.189 76.6151 165.501 75.3212C155.466 72.551 145.348 78.7384 143.201 89.0051C142.053 94.4981 139.781 96.6462 134.264 97.0673C127.301 97.5989 124.149 103.155 121.942 109.133C116.723 107.116 111.73 107.025 108.721 101.104C105.771 95.2993 96.3842 97.5146 93.4065 104.017C92.7007 105.559 93.0722 107.505 91.6514 108.71C90.1233 109.411 89.0415 108.413 87.8523 107.878C75.6411 102.383 62.6558 108.027 58.1466 120.788C55.4476 128.426 55.3389 128.486 47.3789 126.75C42.0337 125.585 37.8386 127.897 36.3725 133.208C35.6625 135.78 34.9269 137.772 31.9718 138.524C30.6332 138.865 29.2378 140.094 28.449 141.3C23.8285 148.366 17.837 153.742 10.1867 157.393C7.14778 158.843 7.0615 160.914 9.93922 163.031C13.7663 165.848 18.2164 167.827 21.1845 171.823C22.6119 173.745 24.2909 171.944 26.1778 171.257ZM133.562 67.6168C134.519 67.0511 135.73 66.7268 135.806 64.7054C126.17 62.0403 122.969 54.9185 124.584 44.9337C117.03 49.0461 114.626 54.1613 116.749 60.2505C119.176 67.21 124.164 69.6029 133.562 67.6168ZM105.473 146C109.798 148.299 113.501 153.323 120.854 148.422C114.443 149.047 111.21 142.78 105.473 146ZM181.894 152.776C180.641 152.622 179.46 151.61 177.715 152.678C182.015 155.164 185.829 158.025 191.302 158.896C188.692 155.796 185.928 154.021 181.894 152.776Z" fill="#105F70"/>
<path d="M225.793 199.906C219.859 199.924 214.498 199.931 209.136 199.953C208.765 199.954 208.394 200.064 206.72 200.333C218.711 201.095 229.548 200.095 240.227 202.53C234.254 205.834 227.847 204.524 221.649 204.725C215.16 204.935 208.659 204.772 202.151 205.07C214.343 206.518 226.868 203.987 238.692 207.488C238.917 209.2 238.246 209.926 237.591 209.878C224.82 208.93 213.028 215.645 200.094 214.308C190.426 213.31 180.642 214.246 170.955 215.475C188.475 216.636 206.172 214.371 224.795 217.313C221.937 221.49 218.903 220.837 216.279 220.906C202.336 221.278 188.361 220.268 174.426 221.985C186.654 223.764 199.235 221.21 212.75 224.192C209.451 227.729 206.587 227.556 203.844 227.655C193.716 228.018 183.539 227.147 173.462 228.837C172.388 229.017 171.315 229.211 168.597 229.687C180.306 233.394 191.41 229.723 201.857 233.552C199.868 237.273 197.191 236.913 194.835 236.916C170.133 236.946 145.432 236.939 120.73 236.833C117.612 236.82 114.249 236.971 110.619 233.233C124.091 229.696 137.212 233.837 149.521 229.786C136.403 226.021 122.691 229.07 109.409 226.216C121.057 221.821 133.302 223.271 145.265 221.995C133.454 219.459 121.204 222.423 109.38 218.64C120.809 214.106 132.958 217.01 144.61 214.922C129.993 212.55 114.982 215.602 100.416 211.369C114.08 207.466 128.207 209.871 142.019 208.579C142.019 207.924 142.02 207.269 142.021 206.614C121.627 206.614 101.232 206.614 80.8382 206.614C80.8346 205.618 80.831 204.622 80.8274 203.625C98.1869 200.13 115.971 203.881 133.451 201.778C118.951 200.936 104.354 201.821 89.8539 200.643C90.0746 197.511 91.5792 197.495 92.8517 197.403C98.191 197.016 103.532 196.585 108.881 196.418C115.155 196.221 120.7 192.783 122.374 186.822C123.12 184.164 124.174 183.424 126.582 183.447C171.76 183.882 216.952 182.469 262.115 184.556C263.947 184.64 265.958 184.404 268.358 186.998C259.268 191.775 249.871 188.744 241.048 190.169C246.675 191.268 252.487 189.16 258.559 191.594C256.311 195.032 253.248 194.097 250.684 194.284C247.633 194.506 244.561 194.437 241.497 194.463C238.698 194.486 235.898 194.467 231.547 194.467C238.294 196.197 244.086 193.694 250.213 197.757C241.683 200.709 233.952 199.666 225.793 199.906Z" fill="#105F70"/>
<path d="M182.577 88.8948C190.634 93.1996 193.598 100.684 190.339 107.626C187.145 114.427 179.531 117.641 172.587 115.119C165.771 112.644 161.895 104.96 163.89 97.8811C166.033 90.2756 173.253 86.6626 182.577 88.8948Z" fill="#105F70"/>
<path d="M166.074 252.13C162.631 251.565 160.121 253.476 157.311 253.834C154.889 254.143 152.32 254.493 150.249 252.154C151.624 247.97 155.689 248.755 158.822 247.412C148.927 245.945 139.017 246.436 128.466 245.953C134.41 239.92 180.036 239.189 185.875 244.395C182.534 247.777 178.154 245.336 173.755 246.776C179.798 247.49 185.548 246.28 191.997 250.057C182.635 253.179 174.462 251.591 166.074 252.13Z" fill="#105F70"/>
<path d="M185.559 260.07C178.473 259.711 171.77 260.947 165.031 258.255C171.065 253.246 194.468 253.454 201.719 258.905C196.077 260.685 191.027 259.814 185.559 260.07Z" fill="#105F70"/>
<path d="M193.498 262.88C196.855 263.294 200.11 262.719 202.378 266.589C196.109 268.429 190.435 268.636 184.255 266.356C186.523 262.238 190.023 263.256 193.498 262.88Z" fill="#105F70"/>
<path d="M185.176 269.624C187.28 269.962 189.21 269.659 189.783 271.863C184.427 275.603 176.514 275.271 172.453 270.871C176.457 268.723 180.652 269.842 185.176 269.624Z" fill="#105F70"/>
</svg>
